#!OML:ASF E:/inclinewalkrobotboard/Project1/Captureday1/Session1/subject1.ASF
:FULLY-SPECIFIED
:DEGREES
138
root 0 0 0 -3.3927085592018473 -0.21968738859494819 -1.7558614913063473
lowerback 11.225392725525449 -1.4695583854623355 -0.24106559833439056
upperback 0.49819736759503586 -1.7948285257695133 2.6623418915458332
thorax -5.6924751619143805 -0.8621228599027035 3.158970775738145
lowerneck -18.07276873544072 -2.6793528509615268 -2.1245787398467413
upperneck 15.641779021734045 -2.903989895450489 -0.5903193657007468
head 7.758152563248525 -1.6177239560232757 -0.21714395011031679
rclavicle -2.0321088870447658E-16 -1.3015685530908472E-15
rhumerus -33.40198043359368 -27.164707249472194 -79.1674469637631
rradius 18.13809011797433
rwrist 10.750431532414968
rhand -18.55809577088688 24.708358260809934
rfingers 7.125020000000014
rthumb 7.749716439201719 -5.226794011649275
lclavicle 4.986306898311194E-16 -7.017265248540997E-16
lhumerus -28.297586962908703 -3.1031899351604757 83.86348309857095
lradius 29.538473895846543
lwrist 7.494894596545194
lhand -28.154548487788574 25.74704804160652
lfingers 7.1250200000000365
lthumb -1.5336336228853273 55.76231727363745
rfemur -10.088118364466732 7.122580553612577 32.166510750078096
rtibia 37.24483784888659
rfoot -10.405947088846759 -5.790103679368357
rtoes 8.415281781472556
lfemur -7.049041732751787 1.1310563476447104 -18.32970693888974
ltibia 54.43219594335941
lfoot 7.933902989419362 -15.53867517188775
ltoes -2.027020770206885
139
root 0 0 0 -3.835186490001492 -1.3846560134463608 -3.298665601801238
lowerback 10.59356655206453 -0.9249254063687641 1.2412908508336595
upperback -0.05625123902773507 -0.892002056111856 2.7502038182329365
thorax -5.945300031842401 -0.4450118538996286 2.3038219567303315
lowerneck -18.52586389625366 -2.6489780843827164 -1.824649160415139
upperneck 17.145726529613118 -3.062767399760995 -0.3561855304356287
head 8.495242903366861 -1.60935604931641 -0.2172992128530753
rclavicle -4.2165765502411593E-16 -2.3352431555653473E-15
rhumerus -33.168010901313295 -26.049890330885596 -79.56599691730722
rradius 18.15776076133298
rwrist 11.119478721698776
rhand -18.34235366611432 25.078978986919708
rfingers 7.125020000000015
rthumb 7.955832364009575 -4.810803815693156
lclavicle -1.8240914590510123E-15 -1.9584739962336492E-15
lhumerus -28.665938723187036 -2.140770517944483 84.65086854474856
lradius 27.797946671521437
lwrist 6.686962640607625
lhand -28.13864257260542 25.970242459867453
lfingers 7.125020000000043
lthumb -1.511916791566895 56.00011105167368
rfemur -6.984598291032109 7.542812324728544 34.32934012529516
rtibia 37.82978132068539
rfoot -12.194519753537817 -5.374790157976786
rtoes 9.598872420924158
lfemur -12.441549991688731 3.331137381032855 -17.404573802335165
ltibia 57.973667735815326
lfoot 6.93456360557165 -14.819183023062283
ltoes -2.569713202191817
140
root 0 0 0 -3.8164849538577448 -3.4146088607658216 -6.120058645453721
lowerback 8.346366931793794 0.41581852206188263 3.898194255698341
upperback -0.8423619616010419 1.2272360222499616 2.886918623663752
thorax -5.453435825281289 0.5431321681360913 0.6973757029832048
lowerneck -18.460726252002313 -3.0183265955773195 -1.6270080070139814
upperneck 21.684372632228797 -3.8641056527481075 0.27257165210524725
head 10.07364848147769 -1.8518236548651565 -0.18078534964117066
rclavicle -1.3685341539329507E-15 -1.1896070979243799E-15
rhumerus -33.178422432893115 -23.90143216504672 -80.52636497550554
rradius 18.659356948987245
rwrist 10.807142682913788
rhand -18.206035839162993 25.56970708422574
rfingers 7.125020000000017
rthumb 8.088004181390456 -4.27198183139069
lclavicle -4.002286205525062E-15 -9.187291612207624E-16
lhumerus -29.250547194213773 -1.3142211971972113 85.21904281644704
lradius 26.51404282000859
lwrist 6.151500665867188
lhand -28.086659765920942 26.14536143517706
lfingers 7.125020000000045
lthumb -1.4654374885176846 56.17194880187475
rfemur -4.93764834523218 7.799774908795399 34.88808879932744
rtibia 35.20406979006631
rfoot -14.720443976455316 -5.603734986619004
rtoes 9.0463846105357
lfemur -21.4803511285454 3.567475968491615 -13.5358616064337
ltibia 57.546237811320395
lfoot 3.593574525051043 -10.068919218031128
ltoes -6.246339529660929
141
root 0 0 0 -3.3044415075135474 -4.930686340334697 -7.651924467292806
lowerback 8.885423543621382 1.4749332072826047 5.80502233880004
upperback -0.45504220205133156 2.8650453143188446 2.888567888131771
thorax -5.2862758843060025 1.3130642132929329 -0.6073562243282785
lowerneck -17.990843086686688 -3.474367381107247 -1.9081482867755688
upperneck 22.17018412161184 -4.459916150849377 0.677325709091381
head 10.13183856856009 -2.1405081389249916 -0.07860979325346751
rclavicle -2.7287764126561294E-15 1.3857057896877712E-15
rhumerus -33.28455204525448 -20.880144929376428 -81.70881525538023
rradius 19.50974251964648
rwrist 8.996285260623399
rhand -18.187647556861034 26.285605110164155
rfingers 7.125020000000018
rthumb 8.106683749278595 -3.5070882085158743
lclavicle -5.803667358690393E-15 1.450329097511376E-15
lhumerus -30.12037862501209 -0.771746998634311 85.68123436812637
lradius 25.870253812644137
lwrist 5.952454846823992
lhand -27.929860538843798 26.232397392140758
lfingers 7.125020000000045
lthumb -1.3195353251522857 56.26214203480097
rfemur -2.31732212509851 8.181122325476313 34.93356931576354
rtibia 30.769745732037762
rfoot -17.058217606539355 -5.876959269165166
rtoes 7.899375481757675
lfemur -28.63915722976711 2.957706197151147 -10.573588321846415
ltibia 54.98672130780665
lfoot 0.8212366730509455 -5.720538582667137
ltoes -8.477005091118201
142
root 0 0 0 -2.4227388287471845 -5.822643432703127 -7.591078640298962
lowerback 11.731433485365995 2.144442867952812 6.494224328381294
upperback 1.294947432704743 3.7851667081464795 2.446811657949797
thorax -4.990098719182154 1.7446462565400105 -1.6197325030713596
lowerneck -17.153842932384144 -3.562155241532677 -2.114678886820616
upperneck 22.063520507477946 -4.527452870359437 0.7147903311685025
head 9.942760697952616 -2.192130877782725 -0.02662632446366542
rclavicle -2.8512362914970044E-15 2.684243516050728E-15
rhumerus -31.151207335188516 -16.08855186842809 -82.26793554006755
rradius 23.71472728068798
rwrist 7.641739546677795
rhand -18.83868716518733 28.564358156941154
rfingers 7.12502000000002
rthumb 7.479744094006023 -1.269462846598742
lclavicle -6.289759235216964E-15 2.1377349340427406E-15
lhumerus -30.470362668857724 -0.5142754611833669 86.30710741991352
lradius 25.288659577157475
lwrist 5.822019391796198
lhand -27.883163101158676 26.360368828963296
lfingers 7.125020000000045
lthumb -1.273315015744255 56.400131859325086
rfemur -0.12191719859040973 8.511941152029996 35.14034464607478
rtibia 27.775862425290086
rfoot -18.94136449267394 -6.290925830556693
rtoes 5.273234154582884
lfemur -31.2330751837387 1.0051208057302716 -9.56348632756104
ltibia 45.29847934247337
lfoot -2.6304391914269694 -0.8529987086929576
ltoes -10.879954060764828
